<svg width="125" height="68" viewBox="0 0 125 68" fill="none" xmlns="http://www.w3.org/2000/svg">
<g filter="url(#filter0_d_8758_23642)">
<path d="M32.0559 40.264C30.8239 40.264 29.6433 40.1027 28.5139 39.78C27.3846 39.4427 26.4753 39.01 25.7859 38.482L26.9959 35.798C27.6559 36.2673 28.4333 36.656 29.3279 36.964C30.2373 37.2573 31.1539 37.404 32.0779 37.404C32.7819 37.404 33.3466 37.338 33.7719 37.206C34.2119 37.0593 34.5346 36.8613 34.7399 36.612C34.9453 36.3627 35.0479 36.0767 35.0479 35.754C35.0479 35.3433 34.8866 35.0207 34.5639 34.786C34.2413 34.5367 33.8159 34.3387 33.2879 34.192C32.7599 34.0307 32.1733 33.884 31.5279 33.752C30.8973 33.6053 30.2593 33.4293 29.6139 33.224C28.9833 33.0187 28.4039 32.7547 27.8759 32.432C27.3479 32.1093 26.9153 31.684 26.5779 31.156C26.2553 30.628 26.0939 29.9533 26.0939 29.132C26.0939 28.252 26.3286 27.4527 26.7979 26.734C27.2819 26.0007 28.0006 25.4213 28.9539 24.996C29.9219 24.556 31.1319 24.336 32.5839 24.336C33.5519 24.336 34.5053 24.4533 35.4439 24.688C36.3826 24.908 37.2113 25.2453 37.9299 25.7L36.8299 28.406C36.1113 27.9953 35.3926 27.6947 34.6739 27.504C33.9553 27.2987 33.2513 27.196 32.5619 27.196C31.8726 27.196 31.3079 27.2767 30.8679 27.438C30.4279 27.5993 30.1126 27.812 29.9219 28.076C29.7313 28.3253 29.6359 28.6187 29.6359 28.956C29.6359 29.352 29.7973 29.6747 30.1199 29.924C30.4426 30.1587 30.8679 30.3493 31.3959 30.496C31.9239 30.6427 32.5033 30.7893 33.1339 30.936C33.7793 31.0827 34.4173 31.2513 35.0479 31.442C35.6933 31.6327 36.2799 31.8893 36.8079 32.212C37.3359 32.5347 37.7613 32.96 38.0839 33.488C38.4213 34.016 38.5899 34.6833 38.5899 35.49C38.5899 36.3553 38.3479 37.1473 37.8639 37.866C37.3799 38.5847 36.6539 39.164 35.6859 39.604C34.7326 40.044 33.5226 40.264 32.0559 40.264ZM46.6572 40.176C45.3079 40.176 44.1199 39.912 43.0932 39.384C42.0812 38.856 41.2966 38.1373 40.7392 37.228C40.1819 36.304 39.9032 35.2553 39.9032 34.082C39.9032 32.894 40.1746 31.8453 40.7172 30.936C41.2746 30.012 42.0299 29.2933 42.9832 28.78C43.9366 28.252 45.0146 27.988 46.2172 27.988C47.3759 27.988 48.4172 28.2373 49.3412 28.736C50.2799 29.22 51.0206 29.924 51.5632 30.848C52.1059 31.7573 52.3772 32.85 52.3772 34.126C52.3772 34.258 52.3699 34.412 52.3552 34.588C52.3406 34.7493 52.3259 34.9033 52.3112 35.05H42.6972V33.048H50.5072L49.1872 33.642C49.1872 33.026 49.0626 32.4907 48.8132 32.036C48.5639 31.5813 48.2192 31.2293 47.7792 30.98C47.3392 30.716 46.8259 30.584 46.2392 30.584C45.6526 30.584 45.1319 30.716 44.6772 30.98C44.2372 31.2293 43.8926 31.5887 43.6432 32.058C43.3939 32.5127 43.2692 33.0553 43.2692 33.686V34.214C43.2692 34.8593 43.4086 35.4313 43.6872 35.93C43.9806 36.414 44.3839 36.788 44.8972 37.052C45.4252 37.3013 46.0412 37.426 46.7452 37.426C47.3759 37.426 47.9259 37.3307 48.3952 37.14C48.8792 36.9493 49.3192 36.6633 49.7152 36.282L51.5412 38.262C50.9986 38.878 50.3166 39.3547 49.4952 39.692C48.6739 40.0147 47.7279 40.176 46.6572 40.176ZM60.5361 40.176C59.1868 40.176 57.9988 39.912 56.9721 39.384C55.9601 38.856 55.1755 38.1373 54.6181 37.228C54.0608 36.304 53.7821 35.2553 53.7821 34.082C53.7821 32.894 54.0535 31.8453 54.5961 30.936C55.1535 30.012 55.9088 29.2933 56.8621 28.78C57.8155 28.252 58.8935 27.988 60.0961 27.988C61.2548 27.988 62.2961 28.2373 63.2201 28.736C64.1588 29.22 64.8995 29.924 65.4421 30.848C65.9848 31.7573 66.2561 32.85 66.2561 34.126C66.2561 34.258 66.2488 34.412 66.2341 34.588C66.2195 34.7493 66.2048 34.9033 66.1901 35.05H56.5761V33.048H64.3861L63.0661 33.642C63.0661 33.026 62.9415 32.4907 62.6921 32.036C62.4428 31.5813 62.0981 31.2293 61.6581 30.98C61.2181 30.716 60.7048 30.584 60.1181 30.584C59.5315 30.584 59.0108 30.716 58.5561 30.98C58.1161 31.2293 57.7715 31.5887 57.5221 32.058C57.2728 32.5127 57.1481 33.0553 57.1481 33.686V34.214C57.1481 34.8593 57.2875 35.4313 57.5661 35.93C57.8595 36.414 58.2628 36.788 58.7761 37.052C59.3041 37.3013 59.9201 37.426 60.6241 37.426C61.2548 37.426 61.8048 37.3307 62.2741 37.14C62.7581 36.9493 63.1981 36.6633 63.5941 36.282L65.4201 38.262C64.8775 38.878 64.1955 39.3547 63.3741 39.692C62.5528 40.0147 61.6068 40.176 60.5361 40.176ZM82.0315 40V37.69L81.8115 37.184V33.048C81.8115 32.3147 81.5842 31.7427 81.1295 31.332C80.6895 30.9213 80.0075 30.716 79.0835 30.716C78.4528 30.716 77.8295 30.8187 77.2135 31.024C76.6122 31.2147 76.0988 31.4787 75.6735 31.816L74.4415 29.418C75.0868 28.9633 75.8642 28.6113 76.7735 28.362C77.6828 28.1127 78.6068 27.988 79.5455 27.988C81.3495 27.988 82.7502 28.4133 83.7475 29.264C84.7448 30.1147 85.2435 31.442 85.2435 33.246V40H82.0315ZM78.4235 40.176C77.4995 40.176 76.7075 40.022 76.0475 39.714C75.3875 39.3913 74.8815 38.9587 74.5295 38.416C74.1775 37.8733 74.0015 37.2647 74.0015 36.59C74.0015 35.886 74.1702 35.27 74.5075 34.742C74.8595 34.214 75.4095 33.8033 76.1575 33.51C76.9055 33.202 77.8808 33.048 79.0835 33.048H82.2295V35.05H79.4575C78.6508 35.05 78.0935 35.182 77.7855 35.446C77.4922 35.71 77.3455 36.04 77.3455 36.436C77.3455 36.876 77.5142 37.228 77.8515 37.492C78.2035 37.7413 78.6802 37.866 79.2815 37.866C79.8535 37.866 80.3668 37.734 80.8215 37.47C81.2762 37.1913 81.6062 36.788 81.8115 36.26L82.3395 37.844C82.0902 38.6067 81.6355 39.186 80.9755 39.582C80.3155 39.978 79.4648 40.176 78.4235 40.176ZM88.3496 40V23.676H91.7816V40H88.3496ZM94.9668 40V23.676H98.3988V40H94.9668Z" fill="#8395A7"/>
</g>
<path fill-rule="evenodd" clip-rule="evenodd" d="M119.357 26.5212L125 32.3546L119.357 38.1879L117.749 36.6249L120.794 33.4772H110V31.2319H120.794L117.749 28.0843L119.357 26.5212Z" fill="#8395A7"/>
<defs>
<filter id="filter0_d_8758_23642" x="0.785156" y="0.676025" width="122.613" height="66.5879" filterUnits="userSpaceOnUse" color-interpolation-filters="sRGB">
<feFlood flood-opacity="0" result="BackgroundImageFix"/>
<feColorMatrix in="SourceAlpha" type="matrix" values="0 0 0 0 0 0 0 0 0 0 0 0 0 0 0 0 0 0 127 0" result="hardAlpha"/>
<feOffset dy="2"/>
<feGaussianBlur stdDeviation="12.5"/>
<feComposite in2="hardAlpha" operator="out"/>
<feColorMatrix type="matrix" values="0 0 0 0 0 0 0 0 0 0 0 0 0 0 0 0 0 0 0.6 0"/>
<feBlend mode="normal" in2="BackgroundImageFix" result="effect1_dropShadow_8758_23642"/>
<feBlend mode="normal" in="SourceGraphic" in2="effect1_dropShadow_8758_23642" result="shape"/>
</filter>
</defs>
</svg>
