<svg width="64" height="20" viewBox="0 0 64 20" fill="none" xmlns="http://www.w3.org/2000/svg">
<path d="M8.464 16L6.304 12.88H6.176H3.92V16H1.328V4.8H6.176C7.168 4.8 8.02667 4.96533 8.752 5.296C9.488 5.62667 10.0533 6.096 10.448 6.704C10.8427 7.312 11.04 8.032 11.04 8.864C11.04 9.696 10.8373 10.416 10.432 11.024C10.0373 11.6213 9.472 12.08 8.736 12.4L11.248 16H8.464ZM8.416 8.864C8.416 8.23467 8.21333 7.75467 7.808 7.424C7.40267 7.08267 6.81067 6.912 6.032 6.912H3.92V10.816H6.032C6.81067 10.816 7.40267 10.6453 7.808 10.304C8.21333 9.96267 8.416 9.48267 8.416 8.864ZM21.3496 11.728C21.3496 11.76 21.3336 11.984 21.3016 12.4H14.7896C14.907 12.9333 15.1843 13.3547 15.6216 13.664C16.059 13.9733 16.603 14.128 17.2536 14.128C17.7016 14.128 18.0963 14.064 18.4376 13.936C18.7896 13.7973 19.115 13.584 19.4136 13.296L20.7416 14.736C19.931 15.664 18.747 16.128 17.1896 16.128C16.219 16.128 15.3603 15.9413 14.6136 15.568C13.867 15.184 13.291 14.656 12.8856 13.984C12.4803 13.312 12.2776 12.5493 12.2776 11.696C12.2776 10.8533 12.475 10.096 12.8696 9.424C13.275 8.74133 13.8243 8.21333 14.5176 7.84C15.2216 7.456 16.0056 7.264 16.8696 7.264C17.7123 7.264 18.475 7.44533 19.1576 7.808C19.8403 8.17067 20.3736 8.69333 20.7576 9.376C21.1523 10.048 21.3496 10.832 21.3496 11.728ZM16.8856 9.152C16.3203 9.152 15.8456 9.312 15.4616 9.632C15.0776 9.952 14.843 10.3893 14.7576 10.944H18.9976C18.9123 10.4 18.6776 9.968 18.2936 9.648C17.9096 9.31733 17.4403 9.152 16.8856 9.152ZM26.249 7.264C27.5823 7.264 28.6063 7.584 29.321 8.224C30.0357 8.85333 30.393 9.808 30.393 11.088V16H28.057V14.928C27.5877 15.728 26.713 16.128 25.433 16.128C24.7717 16.128 24.1957 16.016 23.705 15.792C23.225 15.568 22.857 15.2587 22.601 14.864C22.345 14.4693 22.217 14.0213 22.217 13.52C22.217 12.72 22.5157 12.0907 23.113 11.632C23.721 11.1733 24.6543 10.944 25.913 10.944H27.897C27.897 10.4 27.7317 9.984 27.401 9.696C27.0703 9.39733 26.5743 9.248 25.913 9.248C25.4543 9.248 25.001 9.32267 24.553 9.472C24.1157 9.61067 23.7423 9.80267 23.433 10.048L22.537 8.304C23.0063 7.97333 23.5663 7.71733 24.217 7.536C24.8783 7.35467 25.5557 7.264 26.249 7.264ZM26.057 14.448C26.4837 14.448 26.8623 14.352 27.193 14.16C27.5237 13.9573 27.7583 13.664 27.897 13.28V12.4H26.185C25.161 12.4 24.649 12.736 24.649 13.408C24.649 13.728 24.7717 13.984 25.017 14.176C25.273 14.3573 25.6197 14.448 26.057 14.448ZM41.5138 4.128V16H39.1298V15.008C38.5111 15.7547 37.6151 16.128 36.4418 16.128C35.6311 16.128 34.8951 15.9467 34.2338 15.584C33.5831 15.2213 33.0711 14.704 32.6978 14.032C32.3244 13.36 32.1378 12.5813 32.1378 11.696C32.1378 10.8107 32.3244 10.032 32.6978 9.36C33.0711 8.688 33.5831 8.17067 34.2338 7.808C34.8951 7.44533 35.6311 7.264 36.4418 7.264C37.5404 7.264 38.3991 7.61067 39.0178 8.304V4.128H41.5138ZM36.8738 14.08C37.5031 14.08 38.0258 13.8667 38.4418 13.44C38.8578 13.0027 39.0658 12.4213 39.0658 11.696C39.0658 10.9707 38.8578 10.3947 38.4418 9.968C38.0258 9.53067 37.5031 9.312 36.8738 9.312C36.2338 9.312 35.7058 9.53067 35.2898 9.968C34.8738 10.3947 34.6658 10.9707 34.6658 11.696C34.6658 12.4213 34.8738 13.0027 35.2898 13.44C35.7058 13.8667 36.2338 14.08 36.8738 14.08Z" fill="#10151A"/>
<path fill-rule="evenodd" clip-rule="evenodd" d="M59.1091 5.30396L64 10.304L59.1091 15.304L57.7155 13.9642L60.3546 11.2662H51V9.3417H60.3546L57.7155 6.64369L59.1091 5.30396Z" fill="#10151A"/>
</svg>
